# xmcd
#
# Track frame offsets:
#	150
#	12810
#	23264
#	35883
#	45849
#	57633
#	70544
#	82094
#	93210
#	106248
#	117358
#	128889
#	139639
#	150724
#	163258
#	173239
#	183079
#	192991
#	204085
#	216559
#
# Disc length: 3063 seconds
#
# Revision: 1
# Processed by: cddbd v1.5.2PL0 Copyright (c) Steve Scherf et al.
# Submitted via: audiograbber 1.83.01
#
DISCID=0a0bf514
DTITLE=James Brown - Fine Old Foxy Self- The 50s
DYEAR=2006
DGENRE=Soul
TTITLE0=I Don't Know
TTITLE1=Try Me
TTITLE2=I Want You So Bad
TTITLE3=Chonnie-On-Chon
TTITLE4=Baby Cries Over the Ocean
TTITLE5=That's When I  Lost My Heart
TTITLE6=I Feel That Old Feeling Coming On
TTITLE7=I Won't Plead No More
TTITLE8=Begging Begging
TTITLE9=That Dood It
TTITLE10=You're Mine, You're Mine
TTITLE11=Tell Me What I Did Wrong
TTITLE12=I've Got to Change
TTITLE13=Gonna Try
TTITLE14=Fine Old Foxy Self
TTITLE15=Strange Things Happen
TTITLE16=Messing With the Blues
TTITLE17=There Must Be A Reason
TTITLE18=It Was You
TTITLE19=It Hurts to Tell You
EXTD=
EXTT0=
EXTT1=
EXTT2=
EXTT3=
EXTT4=
EXTT5=
EXTT6=
EXTT7=
EXTT8=
EXTT9=
EXTT10=
EXTT11=
EXTT12=
EXTT13=
EXTT14=
EXTT15=
EXTT16=
EXTT17=
EXTT18=
EXTT19=
PLAYORDER=
